<?xml version="1.0" encoding="UTF-8"?> <svg xmlns="http://www.w3.org/2000/svg" xmlns:xlink="http://www.w3.org/1999/xlink" width="760px" height="219px" viewBox="0 0 760 219" version="1.1"><title>Group 2</title><g id="Page-1" stroke="none" stroke-width="1" fill="none" fill-rule="evenodd"><g id="reels-copy-395" transform="translate(-700, -635)" fill-rule="nonzero"><g id="Group" transform="translate(700, 635)"><g id="MOLODOST’" fill="#FFFFFF"><path d="M35.0980984,1.83519553 L0,1.83519553 L0,162.414804 L22.0223363,162.414804 L22.0223363,48.862081 L40.8330818,162.414804 L64.6906127,162.414804 L82.1249623,47.2562849 L82.1249623,162.414804 L105.982493,162.414804 L105.982493,1.83519553 L70.8843948,1.83519553 L53.6794446,115.846718 L35.0980984,1.83519553 Z M147.503773,38.7685056 C147.503773,27.2985335 152.550558,22.9399441 160.579535,22.9399441 C168.608512,22.9399441 173.655297,27.2985335 173.655297,38.7685056 L173.655297,125.481494 C173.655297,136.951466 168.608512,141.310056 160.579535,141.310056 C152.550558,141.310056 147.503773,136.951466 147.503773,125.481494 L147.503773,38.7685056 Z M122.269846,123.875698 C122.269846,149.568436 135.804407,164.25 160.579535,164.25 C185.354663,164.25 198.889224,149.568436 198.889224,123.875698 L198.889224,40.3743017 C198.889224,14.6815642 185.354663,0 160.579535,0 C135.804407,0 122.269846,14.6815642 122.269846,40.3743017 L122.269846,123.875698 Z M215.176577,162.414804 L281.931784,162.414804 L281.931784,139.47486 L240.410504,139.47486 L240.410504,1.83519553 L215.176577,1.83519553 L215.176577,162.414804 Z M316.112285,38.7685056 C316.112285,27.2985335 321.15907,22.9399441 329.188047,22.9399441 C337.217024,22.9399441 342.263809,27.2985335 342.263809,38.7685056 L342.263809,125.481494 C342.263809,136.951466 337.217024,141.310056 329.188047,141.310056 C321.15907,141.310056 316.112285,136.951466 316.112285,125.481494 L316.112285,38.7685056 Z M290.878358,123.875698 C290.878358,149.568436 304.412919,164.25 329.188047,164.25 C353.963175,164.25 367.497736,149.568436 367.497736,123.875698 L367.497736,40.3743017 C367.497736,14.6815642 353.963175,0 329.188047,0 C304.412919,0 290.878358,14.6815642 290.878358,40.3743017 L290.878358,123.875698 Z M383.785089,162.414804 L423.700573,162.414804 C448.9345,162.414804 461.322065,148.421439 461.322065,122.728701 L461.322065,41.5212989 C461.322065,15.8285615 448.9345,1.83519553 423.700573,1.83519553 L383.785089,1.83519553 L383.785089,162.414804 Z M423.241775,24.7751397 C431.270752,24.7751397 436.088138,28.9043296 436.088138,40.3743017 L436.088138,123.875698 C436.088138,135.34567 431.270752,139.47486 423.241775,139.47486 L409.019016,139.47486 L409.019016,24.7751397 L423.241775,24.7751397 Z M500.549351,38.7685056 C500.549351,27.2985335 505.596136,22.9399441 513.625113,22.9399441 C521.65409,22.9399441 526.700875,27.2985335 526.700875,38.7685056 L526.700875,125.481494 C526.700875,136.951466 521.65409,141.310056 513.625113,141.310056 C505.596136,141.310056 500.549351,136.951466 500.549351,125.481494 L500.549351,38.7685056 Z M475.315424,123.875698 C475.315424,149.568436 488.849985,164.25 513.625113,164.25 C538.400241,164.25 551.934802,149.568436 551.934802,123.875698 L551.934802,40.3743017 C551.934802,14.6815642 538.400241,0 513.625113,0 C488.849985,0 475.315424,14.6815642 475.315424,40.3743017 L475.315424,123.875698 Z M565.010564,40.3743017 C565.010564,86.2541899 614.331422,92.4479749 614.331422,125.481494 C614.331422,136.951466 609.284636,141.080656 601.25566,141.080656 C593.226683,141.080656 588.179897,136.951466 588.179897,125.481494 L588.179897,114.011522 L564.322366,114.011522 L564.322366,123.875698 C564.322366,149.568436 577.168729,164.25 601.943858,164.25 C626.718986,164.25 639.565349,149.568436 639.565349,123.875698 C639.565349,77.9958101 590.244491,71.8020251 590.244491,38.7685056 C590.244491,27.2985335 594.832478,22.9399441 602.861455,22.9399441 C610.890432,22.9399441 615.478418,27.2985335 615.478418,38.7685056 L615.478418,45.4210894 L639.335949,45.4210894 L639.335949,40.3743017 C639.335949,14.6815642 626.718986,0 602.173257,0 C577.627528,0 565.010564,14.6815642 565.010564,40.3743017 Z M646.676728,24.7751397 L673.057652,24.7751397 L673.057652,162.414804 L698.291579,162.414804 L698.291579,24.7751397 L724.672502,24.7751397 L724.672502,1.83519553 L646.676728,1.83519553 L646.676728,24.7751397 Z M745.318442,26.1515363 L738.665862,49.0914804 L748.988832,49.0914804 L760,23.6281425 L760,1.83519553 L735.68367,1.83519553 L735.68367,26.1515363 L745.318442,26.1515363 Z" id="Combined-Shape"></path></g><g id="RESTAURANT-&amp;-KARAOKE" transform="translate(0, 179.1818)" fill="#F4C586"><path d="M23.0595541,39.158212 L14.2647474,23.7589151 L3.75388089,23.7589151 L3.75388089,39.158212 L0,39.158212 L0,0.659969864 L15.0155236,0.659969864 C18.125882,0.659969864 20.7804121,1.78741838 22.9791137,4.04231542 C25.1778154,6.29721246 26.2771662,9.01958815 26.2771662,12.2094425 C26.2771662,14.812657 25.5174523,17.1317177 23.9980243,19.1666248 C22.4785963,21.2015319 20.5390912,22.5673029 18.1795089,23.2639377 L27.3497036,39.158212 L23.0595541,39.158212 Z M3.75388089,4.28980412 L3.75388089,20.1290809 L15.0155236,20.1290809 C17.0890959,20.1290809 18.8587826,19.3499498 20.3245837,17.7916876 C21.7903848,16.2334254 22.5232854,14.372677 22.5232854,12.2094425 C22.5232854,10.0095429 21.7903848,8.13962833 20.3245837,6.59969864 C18.8587826,5.05976896 17.0890959,4.28980412 15.0155236,4.28980412 L3.75388089,4.28980412 Z M36.4662715,35.5283777 L54.6994073,35.5283777 L54.6994073,39.158212 L32.7123906,39.158212 L32.7123906,0.659969864 L54.4312729,0.659969864 L54.4312729,4.28980412 L36.4662715,4.28980412 L36.4662715,17.9291813 L53.0906012,17.9291813 L53.0906012,21.5590156 L36.4662715,21.5590156 L36.4662715,35.5283777 Z M72.932543,39.8181818 C69.5004234,39.8181818 66.5598833,38.9840532 64.1109229,37.3157961 C61.6619626,35.6475389 59.9548405,33.3468106 58.9895569,30.4136113 L62.2071691,28.4886991 C62.8864428,30.8719237 64.1377364,32.732672 65.96105,34.0709442 C67.7843635,35.4092165 70.1260702,36.0783526 72.9861699,36.0783526 C75.7747671,36.0783526 77.9466554,35.4458815 79.5018346,34.1809392 C81.0570138,32.915997 81.8346034,31.2385736 81.8346034,29.148669 C81.8346034,27.1320944 81.1195785,25.6104972 79.6895286,24.5838774 C78.2594788,23.5572577 75.8998965,22.4939729 72.6107818,21.3940231 C68.7138959,20.0740834 66.1398062,19.0107986 64.8885126,18.2041688 C62.0284128,16.4442491 60.598363,13.8960321 60.598363,10.5595178 C60.598363,7.2963335 61.7066516,4.72061778 63.9232289,2.83237067 C66.1398062,0.944123556 68.8747766,0 72.12814,0 C75.0597422,0 77.5980807,0.77913109 79.7431555,2.33739327 C81.8882303,3.89565545 83.4791608,5.88473129 84.5159469,8.30462079 L81.3519616,10.1195379 C79.6359018,5.86639879 76.5612946,3.73982923 72.12814,3.73982923 C69.804309,3.73982923 67.9273685,4.32646911 66.4973187,5.49974887 C65.0672688,6.67302863 64.3522439,8.30462079 64.3522439,10.3945254 C64.3522439,12.301105 64.9957663,13.7310397 66.2828112,14.6843295 C67.5698561,15.6376193 69.6970552,16.6092416 72.6644087,17.5991964 C74.0229561,18.0758413 74.9971775,18.4149925 75.5870731,18.6166499 C76.1769687,18.8183074 77.0349986,19.1482923 78.1611629,19.6066047 C79.2873271,20.0649171 80.1185436,20.468232 80.6548123,20.8165495 C81.191081,21.1648669 81.8435413,21.6415118 82.6121931,22.2464842 C83.3808449,22.8514566 83.9349892,23.4564289 84.274626,24.0614013 C84.6142629,24.6663737 84.9181485,25.3996735 85.1862828,26.2613009 C85.4544172,27.1229282 85.5884843,28.0487192 85.5884843,29.038674 C85.5884843,32.3018584 84.4265688,34.9142391 82.1027378,36.8758162 C79.7789068,38.8373933 76.7221752,39.8181818 72.932543,39.8181818 Z M115.619531,0.659969864 L115.619531,4.28980412 L104.089754,4.28980412 L104.089754,39.158212 L100.335874,39.158212 L100.335874,4.28980412 L88.8060965,4.28980412 L88.8060965,0.659969864 L115.619531,0.659969864 Z M145.97234,39.158212 L142.486593,29.6986439 L124.682472,29.6986439 L121.196726,39.158212 L117.228338,39.158212 L131.653966,0.659969864 L135.5151,0.659969864 L149.940728,39.158212 L145.97234,39.158212 Z M126.023144,26.0688096 L141.145922,26.0688096 L133.584533,5.44475138 L126.023144,26.0688096 Z M178.255715,36.0783526 C175.681626,38.5715721 172.321009,39.8181818 168.173864,39.8181818 C164.026719,39.8181818 160.666102,38.5715721 158.092012,36.0783526 C155.517923,33.5851331 154.230878,30.2486188 154.230878,26.0688096 L154.230878,0.659969864 L157.984759,0.659969864 L157.984759,26.0688096 C157.984759,29.148669 158.87854,31.586891 160.666102,33.3834756 C162.453665,35.1800603 164.956252,36.0783526 168.173864,36.0783526 C171.391476,36.0783526 173.894063,35.1800603 175.681626,33.3834756 C177.469188,31.586891 178.362969,29.148669 178.362969,26.0688096 L178.362969,0.659969864 L182.11685,0.659969864 L182.11685,26.0688096 C182.11685,30.2486188 180.829805,33.5851331 178.255715,36.0783526 Z M213.220435,39.158212 L204.425628,23.7589151 L193.914762,23.7589151 L193.914762,39.158212 L190.160881,39.158212 L190.160881,0.659969864 L205.176404,0.659969864 C208.286763,0.659969864 210.941293,1.78741838 213.139994,4.04231542 C215.338696,6.29721246 216.438047,9.01958815 216.438047,12.2094425 C216.438047,14.812657 215.678333,17.1317177 214.158905,19.1666248 C212.639477,21.2015319 210.699972,22.5673029 208.34039,23.2639377 L217.510584,39.158212 L213.220435,39.158212 Z M193.914762,4.28980412 L193.914762,20.1290809 L205.176404,20.1290809 C207.249976,20.1290809 209.019663,19.3499498 210.485464,17.7916876 C211.951265,16.2334254 212.684166,14.372677 212.684166,12.2094425 C212.684166,10.0095429 211.951265,8.13962833 210.485464,6.59969864 C209.019663,5.05976896 207.249976,4.28980412 205.176404,4.28980412 L193.914762,4.28980412 Z M247.863393,39.158212 L244.377646,29.6986439 L226.573525,29.6986439 L223.087779,39.158212 L219.11939,39.158212 L233.545018,0.659969864 L237.406153,0.659969864 L251.831781,39.158212 L247.863393,39.158212 Z M227.914197,26.0688096 L243.036974,26.0688096 L235.475586,5.44475138 L227.914197,26.0688096 Z M280.790291,0.659969864 L284.544172,0.659969864 L284.544172,39.158212 L281.326559,39.158212 L260.41208,7.8096434 L260.41208,39.158212 L256.658199,39.158212 L256.658199,0.659969864 L259.875811,0.659969864 L280.790291,32.0085384 L280.790291,0.659969864 Z M316.720294,0.659969864 L316.720294,4.28980412 L305.190517,4.28980412 L305.190517,39.158212 L301.436636,39.158212 L301.436636,4.28980412 L289.906859,4.28980412 L289.906859,0.659969864 L316.720294,0.659969864 Z M365.09173,37.8932697 L361.766864,39.8181818 L357.798476,35.4733802 C354.974127,38.3699146 351.291749,39.8181818 346.751341,39.8181818 C343.068962,39.8181818 340.092671,38.8373933 337.822467,36.8758162 C335.552263,34.9142391 334.417161,32.2651934 334.417161,28.9286791 C334.417161,26.5087896 335.024932,24.3272225 336.240474,22.3839779 C337.456017,20.4407333 339.261455,18.9008036 341.656788,17.7641888 C339.797723,15.6009543 338.868191,13.1810648 338.868191,10.5045203 C338.868191,7.314666 339.940728,4.76644902 342.085803,2.85986941 C344.230878,0.953289804 346.733465,0 349.593565,0 C351.988898,0 354.178662,0.687468609 356.162856,2.06240583 C358.147051,3.43734304 359.568163,5.29809141 360.426192,7.64465093 L357.262207,9.51456554 C356.725938,7.71798091 355.769593,6.3063787 354.39317,5.27975892 C353.016747,4.25313913 351.434754,3.73982923 349.647192,3.73982923 C347.716624,3.73982923 346.063129,4.34480161 344.686706,5.55474636 C343.310283,6.76469111 342.622072,8.34128579 342.622072,10.2845304 C342.622072,11.5678051 342.917019,12.7227524 343.506915,13.7493722 C344.096811,14.775992 344.963778,15.9126067 346.107818,17.1592165 L357.423088,29.5336514 C358.459874,27.4437469 359.139148,25.0055249 359.460909,22.2189854 L362.785775,24.198895 C362.321009,27.3887494 361.409352,30.1202913 360.050804,32.3935208 L365.09173,37.8932697 Z M346.644087,36.0783526 C350.219212,36.0783526 353.079311,34.9417378 355.224386,32.6685083 L344.177251,20.6240583 C342.067927,21.4306881 340.539562,22.5764691 339.592154,24.0614013 C338.644746,25.5463335 338.171041,27.1320944 338.171041,28.8186841 C338.171041,31.0552486 338.930755,32.8243345 340.450183,34.1259417 C341.969611,35.427549 344.034246,36.0783526 346.644087,36.0783526 Z M410.406435,39.158212 L405.472763,39.158212 L387.88315,20.5140633 L387.88315,39.158212 L384.129269,39.158212 L384.129269,0.659969864 L387.88315,0.659969864 L387.88315,18.2591662 L404.936494,0.659969864 L409.870167,0.659969864 L391.851538,19.359116 L410.406435,39.158212 Z M440.222975,39.158212 L436.737228,29.6986439 L418.933108,29.6986439 L415.447361,39.158212 L411.478973,39.158212 L425.904601,0.659969864 L429.765735,0.659969864 L444.191363,39.158212 L440.222975,39.158212 Z M420.273779,26.0688096 L435.396557,26.0688096 L427.835168,5.44475138 L420.273779,26.0688096 Z M472.077336,39.158212 L463.282529,23.7589151 L452.771662,23.7589151 L452.771662,39.158212 L449.017782,39.158212 L449.017782,0.659969864 L464.033305,0.659969864 C467.143664,0.659969864 469.798194,1.78741838 471.996895,4.04231542 C474.195597,6.29721246 475.294948,9.01958815 475.294948,12.2094425 C475.294948,14.812657 474.535234,17.1317177 473.015806,19.1666248 C471.496378,21.2015319 469.556873,22.5673029 467.19729,23.2639377 L476.367485,39.158212 L472.077336,39.158212 Z M452.771662,4.28980412 L452.771662,20.1290809 L464.033305,20.1290809 C466.106877,20.1290809 467.876564,19.3499498 469.342365,17.7916876 C470.808166,16.2334254 471.541067,14.372677 471.541067,12.2094425 C471.541067,10.0095429 470.808166,8.13962833 469.342365,6.59969864 C467.876564,5.05976896 466.106877,4.28980412 464.033305,4.28980412 L452.771662,4.28980412 Z M506.720294,39.158212 L503.234547,29.6986439 L485.430426,29.6986439 L481.94468,39.158212 L477.976291,39.158212 L492.401919,0.659969864 L496.263054,0.659969864 L510.688682,39.158212 L506.720294,39.158212 Z M486.771098,26.0688096 L501.893875,26.0688096 L494.332487,5.44475138 L486.771098,26.0688096 Z M546.565058,34.0434455 C542.811177,37.8932697 538.217142,39.8181818 532.782952,39.8181818 C527.348763,39.8181818 522.754728,37.8841035 519.000847,34.0159468 C515.246966,30.1477901 513.370025,25.4455048 513.370025,19.9090909 C513.370025,14.372677 515.246966,9.67039176 519.000847,5.80223506 C522.754728,1.93407835 527.348763,0 532.782952,0 C538.217142,0 542.811177,1.93407835 546.565058,5.80223506 C550.318939,9.67039176 552.195879,14.372677 552.195879,19.9090909 C552.195879,25.4455048 550.318939,30.1569563 546.565058,34.0434455 Z M521.628563,31.403566 C524.631668,34.5200904 528.349798,36.0783526 532.782952,36.0783526 C537.216107,36.0783526 540.934237,34.5109242 543.937341,31.3760673 C546.940446,28.2412104 548.441998,24.418885 548.441998,19.9090909 C548.441998,15.3992968 546.940446,11.5769714 543.937341,8.44211452 C540.934237,5.30725766 537.216107,3.73982923 532.782952,3.73982923 C528.349798,3.73982923 524.631668,5.30725766 521.628563,8.44211452 C518.625459,11.5769714 517.123906,15.3992968 517.123906,19.9090909 C517.123906,24.418885 518.625459,28.2503767 521.628563,31.403566 Z M584.90827,39.158212 L579.974598,39.158212 L562.384984,20.5140633 L562.384984,39.158212 L558.631104,39.158212 L558.631104,0.659969864 L562.384984,0.659969864 L562.384984,18.2591662 L579.438329,0.659969864 L584.372001,0.659969864 L566.353373,19.359116 L584.90827,39.158212 Z M593.488569,35.5283777 L611.721705,35.5283777 L611.721705,39.158212 L589.734688,39.158212 L589.734688,0.659969864 L611.45357,0.659969864 L611.45357,4.28980412 L593.488569,4.28980412 L593.488569,17.9291813 L610.112899,17.9291813 L610.112899,21.5590156 L593.488569,21.5590156 L593.488569,35.5283777 Z M649.099633,39.8181818 C643.415185,39.8181818 638.713896,37.8932697 634.995766,34.0434455 C631.277637,30.1936213 629.418572,25.4821698 629.418572,19.9090909 C629.418572,14.3360121 631.277637,9.62456052 634.995766,5.77473631 C638.713896,1.9249121 643.415185,0 649.099633,0 C652.567504,0 655.749365,0.852461075 658.645216,2.55738322 C661.541067,4.26230537 663.77552,6.56303365 665.348575,9.45956806 L662.023709,11.4394776 C660.843918,9.09291813 659.092107,7.22300352 656.768275,5.8297338 C654.444444,4.43646409 651.88823,3.73982923 649.099633,3.73982923 C644.41622,3.73982923 640.590836,5.29809141 637.623483,8.41461577 C634.656129,11.5311401 633.172453,15.3626318 633.172453,19.9090909 C633.172453,24.45555 634.656129,28.2870417 637.623483,31.403566 C640.590836,34.5200904 644.41622,36.0783526 649.099633,36.0783526 C651.88823,36.0783526 654.444444,35.3817177 656.768275,33.988448 C659.092107,32.5951783 660.843918,30.7252637 662.023709,28.3787042 L665.348575,30.3036163 C663.811271,33.2001507 661.585756,35.5100452 658.672029,37.2332998 C655.758303,38.9565545 652.567504,39.8181818 649.099633,39.8181818 Z M675.269546,35.5283777 L692.430144,35.5283777 L692.430144,39.158212 L671.515665,39.158212 L671.515665,0.659969864 L675.269546,0.659969864 L675.269546,35.5283777 Z M721.2814,36.0783526 C718.70731,38.5715721 715.346693,39.8181818 711.199548,39.8181818 C707.052404,39.8181818 703.691787,38.5715721 701.117697,36.0783526 C698.543607,33.5851331 697.256562,30.2486188 697.256562,26.0688096 L697.256562,0.659969864 L701.010443,0.659969864 L701.010443,26.0688096 C701.010443,29.148669 701.904224,31.586891 703.691787,33.3834756 C705.479349,35.1800603 707.981936,36.0783526 711.199548,36.0783526 C714.417161,36.0783526 716.919748,35.1800603 718.70731,33.3834756 C720.494873,31.586891 721.388654,29.148669 721.388654,26.0688096 L721.388654,0.659969864 L725.142535,0.659969864 L725.142535,26.0688096 C725.142535,30.2486188 723.85549,33.5851331 721.2814,36.0783526 Z M753.993791,19.1941236 C755.817104,20.0007534 757.273967,21.2198644 758.36438,22.8514566 C759.454793,24.4830487 760,26.3437971 760,28.4337017 C760,31.403566 758.981089,33.9334505 756.943268,36.0233551 C754.905447,38.1132597 752.438611,39.158212 749.54276,39.158212 L733.186565,39.158212 L733.186565,0.659969864 L748.309342,0.659969864 C751.09794,0.659969864 753.475397,1.67742341 755.441716,3.71233049 C757.408035,5.74723757 758.391194,8.17629332 758.391194,10.9994977 C758.391194,14.592667 756.925393,17.3242089 753.993791,19.1941236 Z M748.309342,4.28980412 L736.940446,4.28980412 L736.940446,17.7091914 L748.309342,17.7091914 C750.061153,17.7091914 751.553768,17.0583877 752.787186,15.7567805 C754.020604,14.4551733 754.637313,12.8694124 754.637313,10.9994977 C754.637313,9.16624812 754.020604,7.58965344 752.787186,6.26971371 C751.553768,4.94977398 750.061153,4.28980412 748.309342,4.28980412 Z M749.54276,35.5283777 C751.401825,35.5283777 752.983818,34.8409091 754.288738,33.4659719 C755.593659,32.0910347 756.246119,30.4136113 756.246119,28.4337017 C756.246119,26.4904571 755.593659,24.8221999 754.288738,23.4289302 C752.983818,22.0356605 751.401825,21.3390256 749.54276,21.3390256 L736.940446,21.3390256 L736.940446,35.5283777 L749.54276,35.5283777 Z" id="Combined-Shape"></path></g></g></g></g></svg> 