<svg width="29" height="29" viewBox="0 0 29 29" fill="none" xmlns="http://www.w3.org/2000/svg">
<path d="M14.5644 17.9184L16.273 19.627L21.4011 14.5L16.2742 9.37305L14.5656 11.0828L16.7732 13.2917H7.66602V15.7083H16.7732L14.5644 17.9184Z" fill="#D0C2AD"/>
<path fill-rule="evenodd" clip-rule="evenodd" d="M23.8991 23.8984C29.0901 18.7074 29.0901 10.2926 23.8991 5.10156C18.7081 -0.0894369 10.2932 -0.0894369 5.10223 5.10156C-0.0887655 10.2926 -0.0887655 18.7074 5.10223 23.8984C10.2932 29.0894 18.7081 29.0894 23.8991 23.8984ZM22.1905 22.1898C23.2003 21.18 24.0014 19.9811 24.5479 18.6617C25.0944 17.3423 25.3757 15.9281 25.3757 14.5C25.3757 13.0718 25.0944 11.6577 24.5479 10.3383C24.0014 9.01885 23.2003 7.81999 22.1905 6.81015C21.1806 5.8003 19.9818 4.99925 18.6624 4.45273C17.3429 3.9062 15.9288 3.62491 14.5007 3.62491C13.0725 3.62491 11.6584 3.9062 10.3389 4.45273C9.01952 4.99925 7.82066 5.8003 6.81082 6.81015C4.77135 8.84962 3.62558 11.6157 3.62558 14.5C3.62558 17.3842 4.77135 20.1503 6.81082 22.1898C8.85029 24.2293 11.6164 25.375 14.5007 25.375C17.3849 25.375 20.151 24.2293 22.1905 22.1898Z" fill="#D0C2AD"/>
</svg>
