<svg width="100" height="964" viewBox="0 0 100 964" fill="none" xmlns="http://www.w3.org/2000/svg">
<path d="M4.35377 929.666C4.33589 924.08 5.1007 918.941 6.64819 914.249C8.19567 909.556 9.19779 905.334 9.65454 901.583C16.9268 903.631 24.759 903.684 33.1513 901.744C34.8373 903.731 35.8212 906.013 36.1029 908.591C35.3617 908.905 33.8205 909.477 31.4794 910.304C29.0991 911.093 27.1485 911.861 25.6274 912.608C24.1062 913.315 22.3711 914.317 20.4221 915.612C18.473 916.868 16.9355 918.553 15.8094 920.666C14.6442 922.739 13.851 925.125 13.4299 927.821C13.7941 931.766 15.0148 934.809 17.092 936.951C19.1692 939.093 21.8484 940.159 25.1296 940.148C28.489 940.138 31.2596 939.27 33.4416 937.544C35.5846 935.819 37.1985 933.587 38.2835 930.85C39.3293 928.073 40.2571 925.023 41.0667 921.7C41.8374 918.378 42.8034 915.074 43.9647 911.789C45.087 908.504 46.5813 905.492 48.4475 902.751C50.2746 899.972 53.0213 897.718 56.6876 895.988C60.354 894.257 64.8239 893.384 70.0973 893.368C76.5035 893.348 82.0172 895.186 86.6385 898.883C91.2597 902.579 94.5745 906.944 96.5828 911.977C98.5911 917.01 99.6037 922.163 99.6206 927.436C99.6577 939.038 97.1359 950.53 92.0551 961.913C87.0153 961.694 83.929 961.587 82.7962 961.59C76.4681 961.61 69.6732 962.237 62.4115 963.47C60.7205 959.96 60.6299 956.034 62.1394 951.694C71.0019 950.221 77.7898 947.407 82.5031 943.251C87.2163 939.057 89.8384 934.478 90.3693 929.516C90.042 924.868 88.5266 921.299 85.8233 918.807C83.0808 916.277 79.6198 915.018 75.4401 915.031C71.9245 915.042 68.9584 915.871 66.5418 917.52C64.0861 919.168 62.1985 921.342 60.879 924.041C59.5205 926.741 58.2994 929.674 57.2158 932.842C56.132 935.97 54.9898 939.138 53.7891 942.344C52.5494 945.551 51.0745 948.505 49.3643 951.206C47.6541 953.867 45.2586 956.023 42.178 957.674C39.0973 959.324 35.35 960.156 30.9359 960.169C26.9516 960.182 23.3754 959.568 20.2073 958.328C17.0391 957.049 14.4948 955.396 12.5742 953.371C10.6535 951.307 9.04429 948.909 7.74648 946.179C6.44855 943.41 5.5609 940.678 5.08352 937.984C4.60602 935.251 4.36277 932.479 4.35377 929.666ZM6.7561 929.659C6.7666 932.94 7.16742 936.122 7.95854 939.206C8.7106 942.289 9.95069 945.293 11.6788 948.218C13.4068 951.103 15.9338 953.419 19.2597 955.167C22.5856 956.914 26.4751 957.781 30.9282 957.767C34.8735 957.755 38.2693 956.924 41.1156 955.275C43.9228 953.625 46.1035 951.47 47.6574 948.809C49.2113 946.109 50.5886 943.155 51.7893 939.948C52.9509 936.742 54.1322 933.574 55.3331 930.445C56.5339 927.277 57.8917 924.343 59.4065 921.643C60.9213 918.943 63.0433 916.769 65.7724 915.12C68.4624 913.471 71.6824 912.64 75.4324 912.629C80.6277 912.612 84.8322 914.26 88.0459 917.57C91.2597 920.88 92.8763 925.582 92.8958 931.676C92.9146 937.535 90.4906 942.992 85.6239 948.046C80.7573 953.1 73.4633 956.443 63.7419 958.075C63.2366 958.858 63.2395 959.776 63.7507 960.829C69.8801 959.755 76.226 959.208 82.7885 959.188C84.6244 959.182 87.2223 959.252 90.5822 959.398C95.0433 949.697 97.2599 940.451 97.2317 931.662C97.2085 924.397 95.0385 917.685 90.7219 911.526C86.3663 905.368 80.3017 902.301 72.5283 902.325C68.1143 902.339 64.3866 903.21 61.3452 904.938C58.2648 906.666 55.8697 908.92 54.1598 911.699C52.4499 914.477 50.9753 917.529 49.7359 920.853C48.4966 924.177 47.3353 927.482 46.252 930.766C45.1297 934.051 43.8894 937.082 42.5311 939.86C41.1727 942.599 39.2462 944.831 36.7517 946.558C34.2182 948.284 31.1546 949.153 27.5608 949.164C22.5218 949.18 18.4929 947.493 15.4743 944.104C12.4556 940.715 10.9362 935.896 10.9162 929.646C10.8815 918.786 18.377 911.283 33.4029 907.134C33.5943 905.923 33.3182 905.084 32.5745 904.617C23.0474 905.936 16.3573 908.789 12.5042 913.176C8.65086 917.524 6.73485 923.018 6.7561 929.659ZM86.4266 814.391C89.3172 814.382 91.2067 818.888 92.0949 827.908C92.7209 828.219 93.6389 828.216 94.8488 827.9C94.5932 821.26 94.4543 814.463 94.432 807.51C94.4054 799.19 94.4969 791.182 94.7067 783.486C94.0025 783.176 93.0846 783.179 91.9528 783.495C91.213 796.466 89.3589 802.995 86.3904 803.082C76.7044 803.542 65.1035 803.793 51.588 803.835C37.9943 803.877 26.353 803.699 16.6642 803.299C13.6952 803.23 11.7994 796.713 10.9766 783.746C9.9988 783.359 9.08084 783.362 8.22271 783.755C8.5681 794.027 8.74997 802.035 8.76835 807.777C8.78373 812.581 8.64924 819.379 8.36487 828.169C9.30311 828.4 10.2211 828.397 11.1188 828.16C11.9495 819.212 13.8101 814.695 16.7004 814.608C23.8871 814.351 34.7263 814.122 49.2179 813.921C49.4753 821.107 49.6142 827.904 49.6347 834.31C49.669 845.013 49.6157 852.767 49.4748 857.572C36.3499 857.613 25.4703 857.413 16.836 856.971C13.867 856.902 11.9711 850.384 11.1484 837.418C10.4055 837.186 9.48749 837.189 8.3945 837.426C8.73976 847.66 8.92163 855.667 8.94014 861.448C8.95539 866.214 8.8209 873.011 8.53665 881.84C9.24078 882.151 10.1587 882.148 11.2905 881.832C12.1212 872.845 13.9816 868.308 16.872 868.221C26.0504 867.801 36.9677 867.572 49.6239 867.533C62.0066 867.494 74.3315 867.69 86.5986 868.121C89.4895 868.19 91.379 872.716 92.2671 881.697C92.8931 882.008 93.8111 882.005 95.021 881.689C94.7654 875.049 94.6264 868.252 94.6042 861.299C94.5775 852.979 94.6691 844.971 94.8788 837.275C94.2528 836.964 93.3349 836.967 92.1249 837.283C91.3852 850.254 89.5311 856.784 86.5626 856.871C74.8061 857.298 63.8107 857.528 53.5764 857.56C53.3503 847.951 53.2278 840.197 53.2089 834.299C53.1884 827.893 53.3034 821.095 53.5538 813.907C62.265 813.958 73.2226 814.119 86.4266 814.391ZM86.4343 816.793C70.8865 816.529 61.0813 816.364 57.0185 816.299C56.8868 823.955 56.8279 829.952 56.8417 834.288C56.8525 837.647 56.8821 840.791 56.9305 843.721C56.9788 846.611 57.0035 848.213 57.0045 848.525C66.0279 848.497 75.8319 848.272 86.4165 847.848C86.6509 847.847 86.885 847.768 87.1189 847.611C87.3528 847.454 87.5472 847.18 87.7022 846.789C87.8572 846.398 88.0317 846.007 88.2258 845.616C88.3807 845.186 88.5352 844.658 88.6895 844.032C88.8436 843.368 88.9785 842.781 89.094 842.273C89.2096 841.765 89.3247 841.12 89.4394 840.339C89.5539 839.518 89.6495 838.873 89.7262 838.404C89.8027 837.896 89.8787 837.232 89.9542 836.411C90.0295 835.552 90.1058 834.965 90.1829 834.653C92.3684 834.021 94.7711 834.131 97.391 834.982C97.1247 849.397 96.9965 858.167 97.0065 861.292C97.0131 863.362 97.1929 870.705 97.5458 883.321C94.8536 884.306 92.3341 884.314 89.9872 883.345C89.1007 874.871 87.9347 870.597 86.4891 870.524C74.222 870.093 61.9362 869.897 49.6316 869.935C37.0535 869.974 26.1753 870.203 16.9969 870.623C15.5518 870.705 14.4134 875.064 13.5817 883.7C11.0838 884.371 8.56406 884.301 6.02239 883.489C6.01138 880.051 6.09416 875.403 6.27072 869.543C6.44715 863.644 6.53168 859.542 6.5243 857.237C6.51893 855.557 6.46949 852.315 6.37599 847.511C6.28248 842.706 6.23011 838.546 6.21885 835.031C8.44315 834.321 10.8454 834.274 13.4255 834.891C14.3125 843.521 15.4788 847.873 16.9243 847.947C27.707 848.382 37.7858 848.585 47.1608 848.556C47.3832 844.805 47.407 840.059 47.2324 834.317L46.9405 816.33C34.2066 816.526 24.1683 816.752 16.8253 817.01C15.3802 817.092 14.2418 821.451 13.4101 830.087C10.678 830.798 8.15822 830.728 5.85079 829.876C6.22328 824.21 6.39403 816.534 6.36302 806.847C6.35714 805.011 6.30614 801.28 6.21001 795.656C6.11376 789.992 6.05951 785.246 6.04726 781.418C8.27143 780.669 10.6736 780.603 13.2537 781.22C14.1408 789.889 15.3072 794.26 16.7527 794.334C26.4414 794.694 38.0435 794.854 51.5591 794.812C64.9965 794.77 76.5584 794.539 86.2446 794.118C87.6896 794.035 88.828 789.657 89.6596 780.982C92.1576 780.349 94.6774 780.439 97.2191 781.252C96.9469 793.87 96.8142 801.214 96.8208 803.284C96.8308 806.409 97.0151 815.178 97.3738 829.591C94.6815 830.537 92.162 830.545 89.8152 829.615C88.9285 821.063 87.8015 816.789 86.4343 816.793ZM91.6184 679.022C91.5082 681.21 91.3588 683.34 91.1701 685.411C90.9422 687.443 90.6357 689.299 90.2504 690.98C89.8652 692.661 89.3619 694.088 88.7407 695.262C88.0802 696.397 87.2623 697.142 86.2869 697.496L6.35191 730.147C6.39309 730.811 6.66859 731.455 7.1784 732.078C12.023 732.337 15.9145 733.809 18.8528 736.495L22.3055 735.137L84.5523 759.67C88.4635 761.22 90.9203 766.017 91.9226 774.061C92.4702 774.294 92.9589 774.409 93.3885 774.408C93.8573 774.407 94.3257 774.288 94.7937 774.052C94.6232 769.599 94.4945 766.026 94.4078 763.331C94.3209 760.596 94.2758 758.722 94.2726 757.706C94.2697 756.808 94.3023 754.776 94.3703 751.612C94.4381 748.409 94.5415 744.072 94.6802 738.603C94.2107 738.37 93.7416 738.254 93.2728 738.256C92.8431 738.257 92.3552 738.376 91.8091 738.612C91.507 741.855 91.1834 744.493 90.8383 746.525C90.4542 748.558 90.0491 750.141 89.6231 751.275C89.197 752.409 88.7307 753.172 88.2241 753.565C87.6785 753.957 87.0737 754.154 86.4096 754.156C85.9799 754.158 85.55 754.081 85.1198 753.926L63.6472 745.438C63.5552 741.102 63.4854 737.606 63.4379 734.95C63.3902 732.255 63.3647 730.4 63.3615 729.384C63.3543 727.157 63.3676 725.185 63.4011 723.466C63.3955 721.708 63.4102 720.204 63.4453 718.954L84.9805 710.391C85.5658 710.194 86.0147 710.095 86.3272 710.094C87.3819 710.09 88.3211 710.634 89.1449 711.726C89.9686 712.778 90.5392 714.085 90.8567 715.646L91.7559 721.971C92.3035 722.204 92.7921 722.32 93.2218 722.318C93.6906 722.317 94.1589 722.198 94.6269 721.962C94.4991 718.643 94.3907 715.284 94.3017 711.885C94.2126 708.448 94.1623 704.933 94.1508 701.339C94.1393 697.745 94.1667 694.112 94.2331 690.44C94.2993 686.729 94.3848 682.92 94.4895 679.014C93.9417 678.742 93.4725 678.607 93.0819 678.608C92.8475 678.608 92.6133 678.648 92.3792 678.727C92.145 678.806 91.8915 678.904 91.6184 679.022ZM58.7912 729.398C58.8093 735.062 58.7461 739.73 58.6016 743.403L29.8552 732.359L29.8544 732.125L58.6466 720.844C58.7315 722.953 58.7797 725.804 58.7912 729.398ZM36.0071 732.223L56.3054 739.953C56.5247 735.226 56.5471 730.03 56.3727 724.367L36.0071 732.223ZM89.4446 677.213C91.7852 676.229 94.2658 676.26 96.8864 677.307L97.0351 723.771C94.3428 724.717 91.8623 724.725 89.5937 723.795C89.3457 719.538 88.9064 716.531 88.2758 714.775C87.6061 713.019 86.5495 712.417 85.1059 712.969L65.736 720.705C65.4857 727.932 65.5886 735.666 66.0447 743.907L85.4633 751.405C86.1281 751.638 86.733 751.46 87.278 750.872C87.7838 750.246 88.1908 749.248 88.4989 747.88C88.807 746.512 89.0558 744.91 89.2453 743.073C89.4347 741.237 89.5648 739.166 89.6355 736.861C91.9761 735.877 94.4567 735.908 97.0773 736.955C96.6495 749.769 96.6909 762.679 97.2012 775.685C94.5874 776.748 92.1071 776.795 89.7602 775.826C88.797 767.782 87.0246 763.236 84.4431 762.19L22.1963 737.657C21.8843 737.814 21.1822 738.128 20.09 738.601C18.9585 739.034 18.2172 739.29 17.8659 739.369C14.7702 736.332 10.7805 734.665 5.89666 734.367C4.20598 730.935 3.23601 726.895 2.98676 722.247L84.4437 689.123C86.2772 688.375 87.5039 687.199 88.1238 685.596C88.7046 683.992 89.1449 681.198 89.4446 677.213ZM7.57196 580.436C7.91884 591.177 8.09609 597.739 8.10372 600.122C8.11272 602.934 7.97504 608.735 7.69067 617.525C8.55079 617.757 9.46875 617.754 10.4446 617.517C10.6659 613.453 11.0085 610.64 11.4722 609.076C11.936 607.512 12.8905 606.728 14.3358 606.723C15.0389 606.721 15.6061 606.954 16.0373 607.421L48.1942 640.544L48.2074 644.646C37.5434 644.679 26.8591 644.478 16.1545 644.042C13.1855 643.973 11.2896 637.456 10.4669 624.489C9.72394 624.257 8.80598 624.26 7.71299 624.498C8.05824 634.731 8.24006 642.719 8.25844 648.461C8.27381 653.266 8.13938 660.083 7.85514 668.912C8.55926 669.222 9.47723 669.219 10.609 668.903C11.4396 659.916 13.3001 655.379 16.1905 655.292C25.3689 654.873 36.2862 654.644 48.9424 654.604C61.3251 654.566 73.65 654.762 85.9171 655.192C88.808 655.262 90.6974 659.787 91.5856 668.769C92.2116 669.079 93.1295 669.076 94.3395 668.76C94.0838 662.12 93.9448 655.304 93.9225 648.312C93.8958 639.992 93.9874 632.003 94.1973 624.346C93.5713 624.036 92.6534 624.038 91.4434 624.355C90.7037 637.326 88.8496 643.855 85.8811 643.942C73.6949 644.371 62.8167 644.6 53.2464 644.63L53.1142 639.943L82.6712 611.316C84.891 609.199 86.4696 608.14 87.4071 608.137C88.7743 608.132 89.7724 608.754 90.4014 610.002C90.9913 611.251 91.3314 613.75 91.4215 617.499C92.6334 617.808 93.5514 617.805 94.1754 617.491L94.2926 617.49C93.9524 608.859 93.7725 601.457 93.7527 595.285C93.7239 586.262 93.8178 578.996 94.0345 573.487C93.1743 573.216 92.2563 573.219 91.2806 573.496C90.9973 582.598 88.1105 589.912 82.6204 595.437L46.1151 631.703L16.0142 600.214C14.5623 598.148 13.4221 595.847 12.5937 593.311C11.726 590.735 11.1919 588.628 10.9914 586.987C10.7908 585.347 10.569 583.161 10.3258 580.427C9.34854 580.196 8.43058 580.199 7.57196 580.436ZM12.6011 577.314C13.2561 586.687 14.9963 593.401 17.8218 597.455L43.5718 624.269L80.7779 587.298C86.268 581.773 89.1216 576.276 89.3384 570.806C91.9145 570.173 94.3169 570.166 96.5454 570.784C95.9543 581.372 96.0059 597.504 96.7003 619.182C94.4763 619.97 92.0743 620.095 89.4945 619.556C89.319 613.541 88.6257 610.535 87.4148 610.539C87.0242 610.54 78.2227 618.888 61.0105 635.582C68.276 635.56 76.5176 635.339 85.735 634.919C85.9694 634.919 86.2035 634.82 86.4372 634.624C86.671 634.428 86.8654 634.154 87.0205 633.802C87.1755 633.411 87.35 633.02 87.5441 632.629C87.6991 632.238 87.8537 631.71 88.0078 631.045C88.1618 630.342 88.2966 629.755 88.4123 629.286C88.528 628.817 88.6432 628.192 88.7579 627.41C88.8724 626.589 88.968 625.944 89.0447 625.475C89.1212 624.967 89.1971 624.303 89.2726 623.483C89.348 622.623 89.4243 622.037 89.5014 621.724C92.0776 621.13 94.4803 621.24 96.7095 622.053C96.4432 636.468 96.3149 645.219 96.3248 648.305C96.3315 650.414 96.5114 657.777 96.8642 670.393C94.1721 671.378 91.6525 671.386 89.3057 670.416C88.4192 661.942 87.2532 657.669 85.8076 657.595C76.0405 657.157 63.7547 656.961 48.9501 657.007C36.372 657.046 25.4938 657.275 16.3154 657.694C14.8703 657.777 13.7319 662.136 12.9002 670.771C10.3242 671.443 7.80442 671.373 5.34087 670.56C5.32987 667.123 5.41265 662.474 5.58921 656.614C5.76564 650.715 5.85017 646.613 5.84279 644.308C5.83741 642.629 5.78835 639.504 5.6956 634.934C5.60284 630.364 5.55084 626.321 5.53959 622.805C7.76389 622.095 10.1661 622.049 12.7462 622.666C13.5536 630.827 14.7191 634.945 16.2428 635.018C24.3299 635.384 32.2799 635.593 40.0926 635.647L14.3435 609.126C13.7185 609.128 13.1823 612.45 12.7348 619.092C10.081 619.881 7.60045 619.85 5.29303 618.998C5.87264 604.816 5.90632 590.929 5.39406 577.337C7.61861 576.705 10.0209 576.697 12.6011 577.314ZM85.554 541.755C69.227 542.119 56.9033 542.313 48.583 542.339C38.9737 542.369 28.0552 542.208 15.8274 541.855C12.8584 541.786 10.9626 535.269 10.1398 522.302C9.39688 522.07 8.47891 522.073 7.38592 522.311C7.73117 532.544 7.91299 540.532 7.93137 546.274C7.94675 551.079 7.81232 557.896 7.52807 566.725C8.23219 567.035 9.15016 567.032 10.282 566.716C11.1126 557.729 12.9731 553.192 15.8634 553.105C25.0418 552.686 35.9591 552.457 48.6153 552.417C60.9981 552.379 73.323 552.575 85.59 553.005C88.4809 553.075 90.3704 557.6 91.2585 566.582C91.8845 566.892 92.8025 566.889 94.0124 566.573C93.7568 559.933 93.6178 553.117 93.5954 546.125C93.5688 537.805 93.6604 529.816 93.8702 522.159C93.2442 521.849 92.3263 521.851 91.1164 522.168C90.3766 535.139 88.5225 541.668 85.554 541.755ZM12.5731 568.584C9.99713 569.256 7.47736 569.186 5.01381 568.373C5.0028 564.936 5.08558 560.287 5.26214 554.427C5.43857 548.528 5.5231 544.426 5.51572 542.121C5.51035 540.442 5.46091 537.2 5.3674 532.395C5.2739 527.591 5.22152 523.431 5.21027 519.915C7.43445 519.166 9.83665 519.12 12.4169 519.776C13.3039 528.406 14.4702 532.758 15.9157 532.831C25.6828 533.27 38.0077 533.466 52.8905 533.419C67.2654 533.375 78.1045 533.146 85.408 532.732C85.6423 532.732 85.8764 532.633 86.1101 532.437C86.3439 532.241 86.5383 531.967 86.6934 531.615C86.8484 531.224 87.023 530.833 87.217 530.442C87.372 530.051 87.5266 529.523 87.6807 528.858C87.8347 528.155 87.9696 527.568 88.0852 527.099C88.2009 526.63 88.3161 526.005 88.4308 525.223C88.5454 524.402 88.641 523.757 88.7176 523.289C88.7941 522.78 88.8701 522.116 88.9456 521.296C89.021 520.436 89.0972 519.85 89.1743 519.537C91.3597 518.866 93.7624 518.976 96.3825 519.866C96.1161 534.281 95.9878 543.032 95.9977 546.118C96.0045 548.227 96.1843 555.59 96.5372 568.206C93.845 569.191 91.3255 569.199 88.9786 568.229C88.0921 559.755 86.9261 555.482 85.4805 555.408C75.7135 554.97 63.4276 554.774 48.623 554.82C36.0449 554.859 25.1667 555.088 15.9883 555.507C14.5432 555.59 13.4049 559.949 12.5731 568.584ZM11.3126 485.97L11.3122 485.853C11.1482 483.432 11.0601 480.307 11.0478 476.479C11.0288 470.542 12.8503 466.005 16.5121 462.868C20.1738 459.693 24.9344 458.096 30.7937 458.078C36.7312 458.059 41.8921 459.488 46.2763 462.365C50.6213 465.204 52.8036 469.669 52.8231 475.763C52.8346 479.357 52.3968 482.913 51.5096 486.431C37.7597 486.474 24.3607 486.32 11.3126 485.97ZM30.8014 460.48C25.7624 460.496 21.529 462.032 18.1013 465.09C14.6734 468.108 13.1627 472.097 13.5692 477.057C28.6092 477.323 40.6604 477.442 49.7229 477.413C49.9548 476.631 50.1463 475.439 50.2974 473.837C49.775 469.269 47.6157 465.896 43.8197 463.721C40.0236 461.545 35.6842 460.465 30.8014 460.48ZM85.4107 496.99C88.3016 497.059 90.1911 501.585 91.0792 510.566C91.7052 510.877 92.6232 510.874 93.8331 510.558C93.5775 503.918 93.4385 497.102 93.4161 490.11C93.3895 481.789 93.4811 473.801 93.691 466.144C93.065 465.833 92.147 465.836 90.9371 466.152C90.1973 479.124 88.3432 485.653 85.3747 485.74C74.3995 486.165 64.5955 486.391 55.9627 486.418C56.847 482.001 57.2831 477.917 57.2711 474.167C69.1646 467.724 81.1688 459.249 93.2837 448.743C93.2773 446.751 93.2877 443.879 93.3147 440.129C93.3417 436.34 93.3698 432.942 93.3993 429.934C93.4286 426.887 93.4779 423.996 93.5473 421.261C92.8432 420.951 91.9252 420.954 90.7934 421.27C90.3452 427.678 88.8 433.093 86.1579 437.515C83.4766 441.898 78.5321 447.031 71.3243 452.913C66.298 456.913 60.997 460.523 55.4214 463.743C53.4888 457.968 50.2907 453.427 45.8269 450.121C41.3632 446.814 36.3384 445.17 30.7525 445.187C23.7213 445.209 18.0449 447.492 13.7235 452.037C9.36305 456.582 7.19563 462.858 7.22126 470.866C7.61828 497.271 7.66078 510.552 7.34879 510.709C8.28703 510.941 9.205 510.938 10.1027 510.701C10.9333 501.714 12.7938 497.177 15.6841 497.09C24.8625 496.67 35.7798 496.441 48.436 496.402C60.8188 496.363 73.1437 496.559 85.4107 496.99ZM85.3012 499.393C75.5342 498.954 63.2483 498.758 48.4437 498.804C35.8656 498.843 24.9874 499.072 15.809 499.492C14.364 499.574 13.2256 503.933 12.3938 512.569C9.81784 513.241 7.29807 513.17 4.83452 512.358C5.05514 508.06 5.15739 503.392 5.14126 498.353C5.12513 493.314 5.06756 487.533 4.96856 481.01C4.86956 474.486 4.81518 469.701 4.80543 466.655C4.77517 457.202 7.15375 449.772 11.9412 444.367C16.6895 438.961 22.9504 436.246 30.7238 436.222C36.2316 436.205 41.3147 437.771 45.9733 440.921C50.6318 444.071 54.161 448.317 56.561 453.662C60.8884 450.992 65.3316 447.892 69.8907 444.362C75.3852 440.205 79.7472 436.128 82.9766 432.134C86.2059 428.101 88.0471 423.642 88.5002 418.757C90.9982 418.125 93.518 418.195 96.0595 418.968C95.9211 424.555 95.7978 434.829 95.6894 449.79C82.9121 460.806 70.9084 469.418 59.6782 475.625L59.6838 477.382C66.9494 477.36 75.4643 477.138 85.2287 476.717C85.463 476.716 85.6971 476.618 85.9308 476.422C86.1646 476.226 86.5333 475.463 87.0368 474.133C87.5404 472.804 87.9831 470.791 88.3651 468.094C88.708 465.359 88.9179 463.834 88.995 463.522C91.1804 462.851 93.5831 462.961 96.2032 463.851C95.9368 478.266 95.8086 487.016 95.8184 490.102C95.8252 492.212 96.005 499.574 96.3579 512.19C93.6657 513.175 91.1462 513.183 88.7993 512.214C87.9128 503.74 86.7468 499.466 85.3012 499.393ZM11.626 364.211C11.87 367.218 12.6013 369.911 13.8198 372.29C15.0384 374.669 16.6271 376.754 18.586 378.545C20.5058 380.336 22.7177 381.872 25.2219 383.153C27.6868 384.396 30.3073 385.423 33.0833 386.234C35.8593 387.007 38.7322 387.584 41.7022 387.965C44.633 388.308 47.5242 388.475 50.3757 388.466C53.2273 388.457 56.1368 388.272 59.1045 387.911C62.0329 387.511 64.8825 386.897 67.6533 386.068C70.4241 385.239 73.0379 384.196 75.4949 382.938C77.9517 381.642 80.1342 380.092 82.0425 378.289C83.9116 376.447 85.4284 374.353 86.5927 372.005C87.757 369.619 88.4515 366.941 88.6764 363.971C88.4323 360.925 87.7205 358.213 86.541 355.834C85.3224 353.454 83.7728 351.369 81.892 349.578C79.9721 347.748 77.7797 346.212 75.3147 344.97C72.8106 343.689 70.1901 342.662 67.4533 341.889C64.6772 341.077 61.8238 340.5 58.893 340.158C55.923 339.776 53.0318 339.59 50.2193 339.599C47.3678 339.608 44.4778 339.812 41.5493 340.212C38.5817 340.572 35.7125 341.167 32.9417 341.996C30.1317 342.786 27.4984 343.83 25.0416 345.126C22.5456 346.384 20.3435 347.934 18.4353 349.776C16.527 351.579 14.9713 353.693 13.7681 356.118C12.5648 358.505 11.8508 361.202 11.626 364.211ZM91.2025 366.014C91.2149 369.882 90.6595 373.34 89.5365 376.391C88.3744 379.441 86.8205 382.141 84.8749 384.491C82.8901 386.802 80.5722 388.782 77.9212 390.431C75.2701 392.041 72.4423 393.378 69.4379 394.442C66.3943 395.467 63.2522 396.219 60.0115 396.697C56.7318 397.176 53.5294 397.421 50.4044 397.43C47.2794 397.44 44.0951 397.216 40.8514 396.757C37.5687 396.298 34.4023 395.566 31.3522 394.56C28.302 393.554 25.4267 392.235 22.7262 390.602C20.0256 388.97 17.6756 387.005 15.676 384.706C13.6765 382.408 12.0859 379.737 10.9042 376.694C9.7225 373.612 9.12543 370.137 9.11306 366.27C9.10168 362.715 9.67742 359.53 10.8403 356.713C11.9641 353.897 13.5382 351.432 15.5627 349.316C17.548 347.161 19.8859 345.318 22.5763 343.786C25.2667 342.254 28.1339 341.015 31.1777 340.068C34.2215 339.082 37.3833 338.369 40.6631 337.929C43.9038 337.45 47.0866 337.206 50.2116 337.196C53.3366 337.187 56.5209 337.392 59.7644 337.811C62.9689 338.231 66.0961 338.924 69.1461 339.891C72.1569 340.82 75.0124 342.041 77.7126 343.556C80.3736 345.032 82.7036 346.842 84.7026 348.984C86.7017 351.126 88.2917 353.602 89.4725 356.41C90.6143 359.219 91.191 362.421 91.2025 366.014ZM95.4212 366.001C95.4126 363.306 95.1299 360.397 94.573 357.273C94.0161 354.15 93.0687 351.048 91.7307 347.966C90.3926 344.845 88.6056 341.843 86.3698 338.959C84.134 336.075 81.3524 333.545 78.0251 331.368C74.6586 329.152 70.6881 327.387 66.1136 326.073C61.5 324.759 56.1854 324.111 50.1698 324.13C44.2714 324.148 39.0587 324.829 34.5317 326.171C29.9656 327.474 26.0063 329.225 22.6539 331.423C19.3016 333.621 16.4972 336.149 14.2407 339.007C11.9842 341.866 10.1773 344.86 8.82017 347.989C7.42393 351.119 6.4379 354.266 5.8621 357.432C5.2471 360.559 4.94404 363.509 4.95292 366.283C4.96155 368.978 5.24448 371.946 5.80173 375.186C6.31992 378.427 7.24833 381.686 8.58695 384.963C9.8865 388.24 11.6545 391.418 13.8909 394.497C16.1274 397.576 18.9291 400.302 22.296 402.674C25.663 405.046 29.673 406.948 34.3261 408.379C38.9401 409.81 44.3134 410.516 50.4462 410.497C56.3837 410.478 61.6159 409.778 66.1427 408.397C70.6694 406.977 74.6088 405.109 77.9608 402.794C81.2737 400.479 84.0581 397.814 86.3141 394.799C88.5309 391.745 90.3177 388.576 91.6744 385.29C93.031 382.005 93.997 378.701 94.5723 375.379C95.1476 372.057 95.4306 368.931 95.4212 366.001ZM98.0514 363.942C98.0765 371.794 96.9464 378.751 94.6611 384.812C92.4149 390.874 89.2281 395.982 85.1007 400.135C80.9343 404.289 75.9249 407.449 70.0724 409.615C64.1809 411.782 57.6414 412.877 50.4539 412.899C43.2665 412.921 36.7396 411.868 30.8734 409.737C24.9681 407.607 19.9385 404.478 15.7847 400.351C11.5918 396.223 8.35279 391.135 6.0678 385.088C3.74375 379.04 2.56915 372.091 2.54402 364.239C2.52039 356.856 3.55363 350.154 5.64375 344.132C7.73373 338.071 10.8032 332.905 14.852 328.634C18.8617 324.325 23.8315 321.009 29.7616 318.686C35.6916 316.323 42.4847 315.13 50.1409 315.107C57.8362 315.083 64.6563 316.233 70.6013 318.559C76.5071 320.845 81.4981 324.13 85.5743 328.415C89.6504 332.66 92.7333 337.806 94.823 343.855C96.9516 349.864 98.0277 356.56 98.0514 363.942ZM11.4218 208.879C11.7468 212.784 12.245 215.888 12.9165 218.191C13.5487 220.454 14.7449 221.955 16.5051 222.691L96.7641 254.668L96.7834 260.704L17.5589 295.638C14.3604 297.093 12.4217 301.611 11.7429 309.191C9.16689 309.863 6.64712 309.793 4.18357 308.98C4.67256 290.892 4.70049 275.209 4.26735 261.929C6.4914 261.141 8.97186 261.133 11.7087 261.906C12.1155 266.943 12.5553 270.106 13.0282 271.394C13.501 272.681 14.4592 273.049 15.9028 272.498L62.5375 252.255L15.779 233.826C15.1533 233.594 14.607 233.771 14.1401 234.359C13.634 234.907 13.2269 235.846 12.9186 237.175C12.6103 238.465 12.3605 239.775 12.1695 241.103C11.9784 242.432 11.8078 244.054 11.6577 245.968C9.0816 246.601 6.56183 246.531 4.09841 245.757C4.5259 232.865 4.44776 220.658 3.86401 209.137C6.32243 208.348 8.8417 208.262 11.4218 208.879ZM9.14286 210.82C8.00905 210.511 7.09109 210.513 6.38897 210.828C6.63972 215.945 6.77366 221.179 6.79079 226.53C6.80716 231.647 6.70854 237.448 6.49492 243.933C7.19905 244.244 8.11701 244.241 9.24882 243.925C9.39944 242.167 9.551 240.701 9.7035 239.529C9.85587 238.317 10.1442 236.852 10.5683 235.132C10.9925 233.412 11.6528 232.218 12.5491 231.551C13.4453 230.845 14.48 230.725 15.6534 231.19L76.7268 255.258L16.5756 281.344C13.923 282.485 12.2029 282.041 11.4151 280.012C10.5882 277.944 9.88771 272.673 9.31371 264.198C8.1799 263.889 7.26193 263.892 6.55981 264.207C7.14357 275.728 7.18951 290.084 6.69765 307.273C7.4019 307.622 8.31986 307.619 9.45155 307.264C10.1312 299.918 12.5188 295.321 16.6145 293.473L94.376 259.129L94.3672 256.375L15.6333 224.921C13.4033 223.834 11.8548 222.12 10.9879 219.779C10.0819 217.399 9.46686 214.412 9.14286 210.82ZM54.8311 132.865L47.1553 132.888C38.1319 132.917 27.5272 133.145 15.341 133.573C13.2709 133.658 11.8979 137.94 11.2219 146.418C9.85647 146.969 8.60735 147.247 7.47454 147.25C6.77142 147.252 5.57914 146.983 3.89772 146.441C4.11309 140.503 4.21121 134.545 4.19208 128.569C4.17282 122.553 4.03588 116.382 3.78125 110.054C5.45918 109.502 6.64971 109.225 7.35283 109.223C8.48564 109.22 9.73651 109.489 11.1054 110.032C11.9126 118.115 13.3123 122.193 15.3048 122.265C23.5485 122.747 35.6001 122.963 51.4594 122.914C69.3499 122.859 83.8217 122.56 94.8747 122.017L95.0073 126.822L27.1582 182.638C27.8613 182.636 29.1505 182.652 31.0256 182.685C32.8616 182.718 34.2875 182.733 35.3031 182.73C54.1702 182.672 70.2435 182.368 83.5231 181.819C85.6322 181.734 87.0247 177.452 87.7007 168.974C89.0662 168.422 90.3153 168.145 91.4481 168.142C92.3075 168.139 93.5779 168.408 95.2593 168.95C95.0442 174.966 94.946 180.924 94.9649 186.822C94.9842 192.838 95.1211 199.009 95.3757 205.337C93.6978 205.889 92.4292 206.166 91.5698 206.169C90.437 206.172 89.1861 205.903 87.8172 205.36C87.0101 197.277 85.5908 193.199 83.5593 193.127C75.3547 192.684 63.3227 192.487 47.4634 192.536C35.3151 192.574 24.4758 192.764 14.9456 193.106C12.9615 195.651 11.7825 199.522 11.4085 204.719C10.3557 205.308 9.1457 205.605 7.77852 205.609C6.33321 205.613 5.02344 205.246 3.84919 204.508C4.21368 196.343 4.37599 186.03 4.33611 173.569L54.8311 132.865ZM51.4671 125.316C39.6312 125.353 27.5796 125.137 15.3125 124.667C11.7963 124.522 9.63411 120.212 8.82573 111.738C8.16067 111.428 7.24271 111.43 6.07184 111.747C6.32984 119.129 6.46378 124.363 6.47366 127.449C6.48929 132.331 6.38992 137.898 6.17555 144.149C7.34842 144.458 8.26638 144.455 8.92944 144.14C9.6833 135.583 11.8179 131.26 15.3333 131.171C27.5195 130.743 38.1243 130.514 47.1476 130.486C52.4211 130.47 59.5307 130.526 68.4764 130.654L6.76338 181.354C6.79151 190.143 6.65858 197.429 6.36459 203.211C7.30308 203.521 8.22104 203.518 9.11848 203.202C9.41485 198.162 11.0031 193.997 13.8832 190.707C23.3743 190.365 34.5652 190.174 47.4558 190.134C59.2916 190.097 71.3236 190.294 83.5516 190.725C87.1067 190.87 89.2885 195.18 90.0969 203.654C90.7229 203.964 91.6409 203.961 92.8508 203.645C92.5929 196.302 92.459 191.068 92.449 187.943C92.4333 183.06 92.5327 177.494 92.7471 171.243C91.5351 170.934 90.6172 170.937 89.9932 171.252C89.2393 179.809 87.0852 184.132 83.5308 184.221C71.3836 184.649 60.7984 184.878 51.775 184.906C41.4625 184.938 31.2474 184.852 21.1295 184.649L21.1276 184.063L92.6012 125.657L92.4804 124.544C83.3022 125.003 69.631 125.26 51.4671 125.316ZM89.4568 3.67433C89.3466 5.86218 89.1972 7.99156 89.0085 10.0625C88.7806 12.0944 88.4741 13.9509 88.0888 15.6318C87.7036 17.3127 87.2003 18.74 86.5791 19.9138C85.9187 21.0487 85.1007 21.7934 84.1253 22.148L4.19034 54.799C4.23153 55.463 4.50703 56.1067 5.01684 56.7301C9.86144 56.9884 13.7529 58.4607 16.6912 61.1469L20.1439 59.7885L82.3907 84.3217C86.3019 85.872 88.7587 90.6691 89.761 98.7129C90.3086 98.9456 90.7973 99.0612 91.227 99.0599C91.6957 99.0585 92.1641 98.9398 92.6321 98.704C92.4616 94.2514 92.333 90.6775 92.2462 87.9825C92.1593 85.2483 92.1143 83.3735 92.111 82.3579C92.1081 81.4594 92.1407 79.4281 92.2087 76.2638C92.2766 73.0604 92.3799 68.7241 92.5186 63.2549C92.0491 63.022 91.58 62.9063 91.1113 62.9077C90.6816 62.9091 90.1937 63.0278 89.6476 63.2639C89.3454 66.507 89.0218 69.1447 88.6768 71.1771C88.2927 73.2095 87.8876 74.7928 87.4615 75.927C87.0355 77.0611 86.5691 77.8243 86.0626 78.2165C85.517 78.6088 84.9121 78.806 84.2481 78.8081C83.8184 78.8094 83.3884 78.7326 82.9583 78.5777L61.4857 70.0897C61.3937 65.7541 61.3239 62.2582 61.2763 59.6021C61.2286 56.9069 61.2032 55.0515 61.1999 54.0359C61.1928 51.8093 61.206 49.8366 61.2396 48.1177C61.2339 46.3599 61.2486 44.856 61.2837 43.6059L82.8189 35.0428C83.4042 34.8456 83.8531 34.7466 84.1656 34.7456C85.2203 34.7423 86.1596 35.2863 86.9834 36.3775C87.807 37.4296 88.3776 38.7364 88.6951 40.298L89.5943 46.6233C90.1419 46.856 90.6306 46.9717 91.0603 46.9703C91.529 46.9689 91.9974 46.8502 92.4654 46.6144C92.3376 43.2945 92.2291 39.9354 92.1401 36.5372C92.051 33.1 92.0007 29.5845 91.9892 25.9908C91.9777 22.397 92.0051 18.7641 92.0715 15.092C92.1378 11.3809 92.2232 7.57199 92.3279 3.6654C91.7802 3.39366 91.311 3.2584 90.9204 3.25962C90.686 3.26035 90.4517 3.30014 90.2176 3.37899C89.9835 3.45784 89.7299 3.55629 89.4568 3.67433ZM56.6296 54.0501C56.6477 59.7141 56.5846 64.3823 56.4401 68.0546L27.6936 57.0111L27.6929 56.7768L56.485 45.4958C56.5699 47.6049 56.6181 50.4563 56.6296 54.0501ZM33.8456 56.8748L54.1439 64.6047C54.3631 59.8775 54.3855 54.682 54.2112 49.0185L33.8456 56.8748ZM87.2831 1.86467C89.6237 0.880825 92.1042 0.912176 94.7248 1.95872L94.8735 48.4233C92.1812 49.3692 89.7008 49.3769 87.4321 48.4465C87.1841 44.1894 86.7448 41.1829 86.1142 39.4271C85.4445 37.6713 84.3879 37.0692 82.9443 37.6205L63.5745 45.3566C63.3242 52.5839 63.4271 60.318 63.8831 68.5588L83.3017 76.0571C83.9666 76.2894 84.5715 76.1117 85.1165 75.5241C85.6223 74.8975 86.0292 73.9002 86.3374 72.532C86.6455 71.1639 86.8943 69.5615 87.0837 67.725C87.2731 65.8884 87.4032 63.8177 87.474 61.5128C89.8146 60.529 92.2952 60.5603 94.9157 61.6069C94.488 74.4207 94.5293 87.3308 95.0397 100.337C92.4259 101.4 89.9455 101.447 87.5987 100.477C86.6354 92.4335 84.8631 87.8882 82.2816 86.8416L20.0348 62.3084C19.7228 62.4656 19.0206 62.7803 17.9284 63.2525C16.797 63.6857 16.0556 63.9419 15.7043 64.0211C12.6086 60.9838 8.61888 59.3165 3.7351 59.0192C2.04441 55.587 1.07445 51.547 0.825195 46.8993L82.2821 13.7748C84.1156 13.0269 85.3424 11.8512 85.9622 10.2477C86.543 8.64435 86.9833 5.85 87.2831 1.86467Z" fill="white"/>
</svg>
